<svg width="64" height="24" viewBox="0 0 64 24" fill="none" xmlns="http://www.w3.org/2000/svg">
<g clip-path="url(#clip0_1_52)">
<path d="M19.9862 3.70966C19.869 2.99259 19.6403 2.33887 19.3229 1.81361C19.0056 1.28835 18.6106 0.909868 18.1774 0.715862C16.5912 0 10.2082 0 10.2082 0C10.2082 0 3.82499 0.0217241 2.23911 0.737586C1.8059 0.931624 1.41096 1.31012 1.09361 1.83538C0.776266 2.36064 0.547592 3.01434 0.430361 3.73138C-0.0493887 8.39586 -0.235514 15.503 0.443486 19.9806C0.560717 20.6977 0.789391 21.3514 1.10674 21.8766C1.42408 22.4019 1.81902 22.7804 2.25224 22.9744C3.83824 23.6903 10.2214 23.6903 10.2214 23.6903C10.2214 23.6903 16.6045 23.6903 18.1905 22.9744C18.6237 22.7804 19.0186 22.4019 19.336 21.8766C19.6533 21.3514 19.882 20.6977 19.9992 19.9806C20.5051 15.3097 20.6611 8.20697 19.9861 3.70986L19.9862 3.70966Z" fill="#FF0000"/>
<path d="M8.17664 16.9217L13.4719 11.8452L8.17664 6.76862V16.9217Z" fill="white"/>
<path d="M61.4046 6.87727C62.0993 6.87727 62.6235 7.09409 62.9905 7.50623C63.3575 7.91858 63.6198 8.56927 63.777 9.45892C63.9343 10.3484 63.9998 11.5631 63.9998 13.1251V15.6635H60.6313V16.4444L60.6838 18.5922C60.723 19.0695 60.7886 19.4166 60.8934 19.6335C60.9984 19.8505 61.1686 19.9589 61.3915 19.9589C61.693 19.9589 61.9028 19.7638 62.0075 19.3734C62.1255 18.9828 62.1779 18.3319 62.191 17.4424L63.9343 17.616C63.9474 17.7462 63.9474 17.9198 63.9474 18.1366C63.9474 19.5033 63.7245 20.5231 63.2658 21.1955C62.807 21.868 62.1779 22.2151 61.3521 22.2151C60.356 22.2151 59.6614 21.6946 59.2681 20.675C58.875 19.6552 58.6653 18.0497 58.6653 15.9021V13.277C58.7098 9.58906 59.1016 6.88803 61.4046 6.87727ZM37.1696 7.15927V18.0282C37.1696 18.6791 37.2089 19.1564 37.3006 19.4384C37.4868 20.0415 37.9691 19.8873 38.2313 19.5902C38.3826 19.4209 38.5046 19.1891 38.5851 18.9178V7.15906H40.5905V21.9764H39.0176L38.8473 20.154H38.808C38.3755 21.5208 37.7331 22.2149 36.8813 22.2149C35.57 22.2095 35.2491 20.6458 35.1728 19.0577L35.1678 18.9457C35.1583 18.7052 35.1528 18.4643 35.1511 18.2233V7.15927H37.1695H37.1696ZM47.5111 7.15927V18.0282C47.5111 18.6791 47.5504 19.1564 47.6421 19.4384C47.8284 20.0415 48.3106 19.8873 48.5728 19.5902C48.7241 19.4209 48.8461 19.1891 48.9266 18.9178V7.15906H50.932V21.9764H49.3591L49.1888 20.154H49.1495C48.717 21.5208 48.0746 22.2149 47.2228 22.2149C45.9115 22.2095 45.5906 20.6458 45.5143 19.0577L45.5093 18.9457C45.4998 18.7052 45.4943 18.4643 45.4926 18.2233V7.15927H47.5111ZM31.35 6.87727C32.0054 6.87727 32.5428 7.0941 32.936 7.54968C33.3291 8.00527 33.6306 8.69961 33.8141 9.65403C33.9976 10.6086 34.0894 11.8885 34.0894 13.4723V15.6199C34.0894 17.2037 33.9976 18.462 33.8141 19.4164C33.6306 20.3713 33.3423 21.0654 32.936 21.521C32.5298 21.9549 31.9791 22.1934 31.2976 22.1934C30.5898 22.2151 30.0393 21.9766 29.633 21.5427C29.2268 21.0871 28.9383 20.3928 28.768 19.4384C28.5975 18.4838 28.5189 17.2254 28.5189 15.6418V13.4938C28.5189 11.91 28.6106 10.6084 28.8073 9.65382C29.0039 8.67768 29.3053 7.98334 29.7248 7.54968C30.1441 7.11561 30.6815 6.87706 31.35 6.87706V6.87727ZM54.0778 0.932922V8.74285H54.0909C54.2744 8.17885 54.5103 7.72327 54.838 7.3761C55.144 7.03549 55.5046 6.8542 55.8734 6.85554C56.3584 6.85554 56.7254 7.07237 57.0006 7.48451C57.2759 7.91858 57.4725 8.59099 57.5904 9.52389C57.7048 10.4276 57.7698 11.6775 57.7738 13.2536L57.7739 13.4073V15.7502C57.7739 17.9413 57.6035 19.5685 57.2889 20.6098C56.9614 21.6511 56.4633 22.1719 55.7816 22.1719C55.4016 22.1719 55.0608 22.02 54.7463 21.738C54.4681 21.4697 54.2374 21.085 54.0775 20.6224L54.0515 20.5446H54.0123L53.8025 21.9549H52.1379V0.933129H54.0778V0.932922ZM46.0561 1.69223V4.3821H44.0639V21.9764H42.0979V4.3823H40.0925V1.69244H46.0563L46.0561 1.69223ZM24.4425 1.69223L24.4438 1.70051C24.4629 1.84141 24.7279 3.79141 25.0194 6.06334L25.0424 6.24334L25.0771 6.5154L25.1004 6.6981L25.112 6.78975L25.1353 6.97347L25.1469 7.06554L25.17 7.24989L25.2038 7.51947C25.4006 9.09272 25.5885 10.6705 25.7009 11.8018H25.7534C25.861 10.787 26.0174 9.4883 26.1841 8.1623L26.2279 7.81596C26.2499 7.64258 26.2719 7.4692 26.2941 7.29623L26.3284 7.02789C26.5548 5.27068 26.788 3.51589 27.028 1.76361L27.0318 1.73568L27.0378 1.69223H29.0431L26.7231 15.3815V21.9549H24.744V15.4031H24.7309L22.4371 1.69203L24.4425 1.69223ZM31.3106 9.17672C31.0354 9.17672 30.8519 9.41547 30.734 9.91451C30.616 10.4133 30.5636 11.1726 30.5636 12.2359V16.8567C30.5636 17.9415 30.616 18.744 30.7209 19.2215C30.8258 19.6986 31.0224 19.9374 31.3106 19.9374C31.5859 19.9374 31.7825 19.6986 31.9005 19.2215C32.0185 18.744 32.0709 17.9415 32.0709 16.8567V12.2357C32.0709 11.1726 32.0184 10.3916 31.9005 9.9143C31.7825 9.41547 31.5859 9.17672 31.3106 9.17672ZM54.4316 9.61078C54.2719 9.85492 54.1583 10.156 54.0906 10.5323L54.0778 10.6086V19.026C54.2403 19.4816 54.471 19.7853 54.8773 19.8071C55.087 19.8071 55.2573 19.6769 55.3885 19.4166C55.5195 19.1564 55.6113 18.7223 55.6636 18.1149C55.714 17.5318 55.7403 16.7286 55.7423 15.7058V13.6459C55.7423 12.4744 55.716 11.585 55.6768 10.9558C55.6243 10.3266 55.5589 9.87106 55.4409 9.61078C55.2128 9.0683 54.72 9.07492 54.4316 9.61078ZM61.3654 9.11175C61.1425 9.13347 60.9851 9.24189 60.8934 9.4372C60.7886 9.65403 60.723 9.97947 60.6838 10.4568C60.6451 10.9244 60.6319 12.5589 60.6313 12.6242V13.6893H62.0993V12.75V12.768C62.0984 13.0964 62.0943 12.5775 62.0853 11.9404L62.084 11.8548C62.0758 11.2949 62.0638 10.6707 62.0469 10.4568C62.0075 9.95775 61.9419 9.61058 61.8371 9.41547C61.7323 9.22016 61.575 9.11175 61.3653 9.11175H61.3654Z" fill="white"/>
</g>
<defs>
<clipPath id="clip0_1_52">
<rect width="64" height="24" fill="white"/>
</clipPath>
</defs>
</svg>
