<svg width="133" height="65" viewBox="0 0 133 65" fill="none" xmlns="http://www.w3.org/2000/svg">
<path d="M116.582 31.4581C116.616 31.5308 116.616 31.5792 116.616 31.6519C116.616 31.5792 116.582 31.5308 116.582 31.4581ZM66.5 18.8823C38.5197 18.8823 16.1154 24.94 16.1154 32.5C16.1154 40.0358 38.7213 46.1177 66.5 46.1177C94.2787 46.1177 116.885 40.0115 116.885 32.5C116.885 24.9885 94.2787 18.8823 66.5 18.8823Z" fill="#D3D2D2"/>
<path d="M16.8879 32.5C16.8879 39.7208 39.0908 45.5846 66.5 45.5846C93.9092 45.5846 116.112 39.745 116.112 32.5C116.112 25.2792 93.9092 19.4154 66.5 19.4154C39.0908 19.4154 16.8879 25.2792 16.8879 32.5Z" fill="url(#paint0_radial_1_48)"/>
<path d="M20.6165 32.5C20.6165 32.9846 20.7508 33.4692 21.0195 33.9538C20.9188 33.6388 20.8516 33.3238 20.8516 33.0088C20.8516 27.0238 41.3749 22.1777 66.7352 22.1777C90.0465 22.1777 109.293 26.2727 112.216 31.6035C110.267 26.0062 90.5503 21.6204 66.5 21.6204C41.1734 21.5962 20.6165 26.4908 20.6165 32.5Z" fill="url(#paint1_linear_1_48)"/>
<path d="M114.029 32.5C114.029 39.0908 92.7336 44.4458 66.5 44.4458C43.1215 44.4458 23.7067 40.2054 19.7095 34.6323C22.7661 40.4477 42.6849 44.9304 66.8359 44.9304C93.1031 44.9304 114.365 39.6239 114.365 33.1058C114.365 32.4515 114.13 31.7973 113.727 31.1673C113.929 31.5792 114.029 32.0396 114.029 32.5Z" fill="url(#paint2_linear_1_48)"/>
<path d="M75.3676 33.6631C74.2928 34.4627 74.2256 35.5046 74.931 35.965C75.1661 36.1346 75.4684 36.2073 75.7707 36.2315C75.3005 35.8196 75.0989 34.9958 75.67 34.3658C75.5692 34.1719 75.5356 33.9539 75.6028 33.7358C75.6028 33.6873 75.5692 33.6389 75.502 33.6389C75.4348 33.6146 75.4012 33.6389 75.3676 33.6631Z" fill="url(#paint3_linear_1_48)"/>
<path d="M86.3516 35.3592C86.3516 35.4804 86.4188 35.6985 86.4524 35.8681C86.5196 35.7954 86.5531 35.7227 86.6203 35.6258C86.6539 35.5531 86.6539 35.5531 86.5867 35.5288C86.486 35.5046 86.3516 35.4319 86.3516 35.3835C86.318 35.3835 86.318 35.3835 86.3516 35.3592Z" fill="url(#paint4_linear_1_48)"/>
<path d="M87.6279 32.7423C87.9974 32.9846 88.199 33.2754 88.2325 33.5662C88.2325 33.6873 88.4005 33.7115 88.5013 33.5904C88.5349 33.5662 88.5684 33.5177 88.602 33.4692C88.5684 33.445 88.5349 33.4208 88.5013 33.3723C88.3669 33.2512 87.9974 32.9846 87.6279 32.7423Z" fill="url(#paint5_linear_1_48)"/>
<path d="M72.8821 32.2577C73.1508 32.5485 73.2852 32.9362 73.2852 33.445C73.2852 33.5662 73.4195 33.5662 73.4867 33.4692C73.5203 33.4208 73.5875 33.3723 73.6211 33.3238C73.4531 32.8635 73.1172 32.4273 72.8821 32.2577Z" fill="url(#paint6_linear_1_48)"/>
<path d="M82.7238 34.9231C81.7161 35.7954 81.1787 36.6919 81.1787 37.5642C81.1787 37.8792 81.3467 38.2669 81.7161 38.3881C81.8505 38.4365 81.9513 38.4608 82.0856 38.485C82.052 38.3638 82.0185 38.2427 82.0185 38.1458C82.0185 37.2492 82.3879 36.3527 83.3956 35.4562C84.6049 34.39 85.8813 33.8569 86.7546 34.1477C86.721 33.9054 86.5531 33.7115 86.1836 33.5904C86.0156 33.5419 85.8477 33.5177 85.6461 33.5177C84.7728 33.5177 83.6979 34.0508 82.7238 34.9231Z" fill="url(#paint7_linear_1_48)"/>
<path d="M62.7715 33.0573C61.4279 33.4208 60.0843 34.0023 59.1438 34.8988C58.0689 35.9165 57.8002 37.1523 58.5056 37.8792C58.6736 38.0488 58.8751 38.17 59.1102 38.2427C58.7407 37.3946 59.0094 36.2558 59.9164 35.3835C60.8569 34.4869 61.8982 34.1477 63.0738 33.76C63.2418 33.7115 63.2418 33.6388 63.2082 33.5419C63.141 33.3723 63.0066 32.9362 62.9394 32.8392C62.973 32.9604 62.9394 33.0331 62.7715 33.0573Z" fill="url(#paint8_linear_1_48)"/>
<path d="M72.8484 35.7954C71.6056 37.1765 70.43 38.5092 69.1872 39.9146C69.12 39.9873 69.0528 40.0115 68.952 40.0358H66.5C66.3992 40.0358 66.3656 40.0115 66.332 39.9631C66.3992 40.1812 66.5 40.5688 66.5336 40.6658C66.5672 40.7385 66.6343 40.7627 66.7015 40.7627H69.4895C69.5902 40.7627 69.691 40.7142 69.7246 40.6415C70.8666 39.3573 72.0759 37.9762 73.2179 36.6919C73.4866 37.3462 73.5874 37.6369 74.0913 37.9519C74.5615 38.2669 74.9982 38.3396 75.67 38.3396C76.2746 38.3396 76.8456 38.17 77.551 37.9519C77.8197 37.8792 78.0213 37.7823 78.2228 37.6854C78.2228 37.4431 78.2564 37.2008 78.3236 36.9827C78.3236 36.9585 78.29 36.8131 78.122 36.8858C77.7861 37.0554 77.3831 37.225 76.8456 37.3704C76.2074 37.54 75.9051 37.6127 75.3005 37.6127C74.5615 37.6127 73.8897 37.3704 73.4195 36.8373C73.1508 36.5465 73.05 36.1104 73.0164 35.7954C73.0164 35.7712 72.9828 35.7469 72.9492 35.7469C72.9156 35.7712 72.882 35.7712 72.8484 35.7954Z" fill="url(#paint9_linear_1_48)"/>
<path d="M94.4803 36.5223C93.2711 37.5885 91.9611 38.5819 90.6847 39.2846C88.7029 40.3992 86.7547 40.6658 85.7805 39.9631C85.4111 39.6965 85.2095 39.3331 85.2095 38.9938C85.2095 38.8242 85.0752 38.8242 84.9744 38.8969C83.7988 39.7208 81.7834 40.6415 79.9359 39.9873C79.029 39.6481 78.5252 39.0423 78.3236 38.3638C78.4244 38.8485 78.5923 39.5512 78.8947 39.9873C79.0962 40.2781 79.5664 40.6173 79.8688 40.7142C81.5147 41.2958 83.8323 40.6415 85.3439 39.5996C85.3439 39.5754 85.3775 39.5754 85.3775 39.5754C85.4447 39.7692 85.5454 39.9873 85.5454 40.0115C85.6462 40.2538 85.8141 40.4719 85.9485 40.5931C86.9898 41.4412 89.1395 41.0535 91.4236 39.7935C92.7 39.0908 93.6405 38.3881 94.7826 37.4188C94.8162 37.3704 94.8162 37.3219 94.8162 37.225C94.749 37.0069 94.6482 36.6435 94.5811 36.4496C94.5139 36.4496 94.5139 36.4981 94.4803 36.5223ZM78.29 38.3154C78.29 38.3154 78.29 38.3396 78.29 38.3154V38.3154Z" fill="url(#paint10_linear_1_48)"/>
<path d="M78.8611 33.5904C78.7603 34.1235 78.3572 34.5838 77.6855 34.8262C77.1144 35.02 76.4426 34.9958 75.9724 34.6808C75.838 34.5838 75.7372 34.4627 75.6365 34.3415C75.7708 34.7292 75.8716 35.02 76.006 35.1896C76.4426 35.6742 77.2152 35.7954 78.0549 35.4562C78.6596 35.2138 79.197 34.705 79.1298 33.9054C79.0962 33.4935 78.9283 33.0815 78.6596 32.7423C78.8611 33.0088 78.9283 33.2996 78.8611 33.5904Z" fill="url(#paint11_linear_1_48)"/>
<path d="M96.0926 28.5988C95.7231 29.0835 88.3334 37.1765 87.8631 38.0246C87.7287 38.2912 87.6952 38.485 87.8631 38.6304C88.0311 38.7758 88.2326 38.8242 88.5013 38.8242C88.5349 38.7273 88.5685 38.6062 88.6357 38.485C89.1059 37.6369 96.0254 30.0769 96.3949 29.5923C96.4285 29.5438 96.4285 29.4954 96.3949 29.4712C96.3613 29.3985 96.1262 28.5988 96.1262 28.5262C96.1262 28.5504 96.1262 28.5746 96.0926 28.5988Z" fill="url(#paint12_linear_1_48)"/>
<path d="M65.4587 32.3788L65.5259 32.4273C65.9626 32.9119 66.1977 33.5662 66.2313 34.2688C66.2649 34.4142 66.3321 34.4142 66.4328 34.3415C66.5336 34.2688 66.6008 34.1962 66.7016 34.1477C66.5672 33.7842 66.3657 33.445 66.1641 33.13C66.0969 32.9846 65.761 32.5727 65.4587 32.3788Z" fill="url(#paint13_linear_1_48)"/>
<path d="M69.2208 33.9781C67.642 34.8504 66.2984 36.2073 65.6266 36.8131C65.2236 37.1765 64.8541 37.6854 63.8128 38.5092C62.1669 39.7935 59.9836 40.5446 57.901 40.0115C56.759 39.745 55.9192 39.0665 55.6169 38.2427C55.5497 38.0731 55.4154 38.0489 55.3146 38.1458C54.9787 38.4608 54.2733 38.8969 53.7023 39.1877C53.6351 39.2119 53.4672 39.2846 53.3328 39.2362C53.1984 39.1877 52.7954 38.7515 52.6946 38.6304C52.6946 38.6062 52.661 38.6062 52.661 38.5819C52.7954 39.115 52.829 39.1877 53.0305 39.43C53.2656 39.6965 53.5008 39.8904 53.5343 39.9146C53.6687 39.9631 53.8031 39.9146 53.8702 39.8904C54.3069 39.7208 55.1802 39.2362 55.5833 38.8969C55.6841 38.8242 55.8184 38.8727 55.852 38.9454C56.02 39.3089 56.2551 39.5754 56.4902 39.8904C56.759 40.2296 57.33 40.5689 58.069 40.7142C59.0095 40.9081 60.0508 40.9323 61.3943 40.5689C62.4692 40.2781 63.6113 39.6723 64.4846 38.9696C65.5259 38.1458 65.8954 37.6369 66.2984 37.2735C66.9702 36.6677 68.0451 35.6015 69.5231 34.6808C70.0269 34.3658 70.5979 34.1477 70.9674 34.2446C71.169 33.8569 71.0682 33.6389 70.8667 33.5177C70.7995 33.4935 70.6987 33.4692 70.5979 33.4692C70.1949 33.5177 69.691 33.7358 69.2208 33.9781Z" fill="url(#paint14_linear_1_48)"/>
<path d="M42.752 32.8877C41.8451 33.2269 40.7702 33.7842 40.2328 34.5596C39.7961 35.1896 39.7289 35.9408 40.3671 36.6677C40.4343 36.7162 40.4679 36.7888 40.5351 36.8373C40.3335 36.2315 40.5687 35.6015 40.871 35.1169C41.4084 34.3415 42.1474 33.9781 42.8864 33.6388C43.1887 33.4935 43.3566 33.3481 43.1551 32.9846C43.0879 32.8877 43.0543 32.6938 43.0207 32.5242C43.0543 32.6696 42.9535 32.815 42.752 32.8877Z" fill="url(#paint15_linear_1_48)"/>
<path d="M49.5036 25.1581C46.9172 25.8608 45.7751 27.3388 46.3126 28.3323C46.4134 28.5262 46.5813 28.6715 46.8164 28.7685C46.6485 27.8477 47.589 26.3696 50.0746 25.7638C53.3328 24.9885 56.9605 25.4731 59.8828 25.9335C60.2859 25.7396 60.6554 25.6185 60.9913 25.4731C61.1593 25.4004 60.9577 25.3277 60.9241 25.3277C58.6064 25.0127 56.188 24.625 53.8367 24.625C52.3587 24.625 50.9144 24.7704 49.5036 25.1581Z" fill="url(#paint16_linear_1_48)"/>
<path d="M60.3531 30.7069C59.1775 30.7554 57.3636 30.8765 56.1208 30.9977C55.8185 31.0219 55.7849 31.0704 55.7177 31.1431C53.736 33.4935 51.6534 36.0135 49.3357 37.7096C46.8501 39.5269 44.8011 40.0115 42.6177 40.0115C40.0985 40.0358 37.848 38.9938 37.277 37.1765C37.5793 38.1942 38.4862 39.4058 39.5275 39.9388C40.6024 40.4719 41.6436 40.6658 42.8529 40.6658C45.3385 40.69 47.6226 39.9631 50.0411 38.1942C52.3588 36.4981 54.3742 34.1235 56.3224 31.7731C56.3895 31.7004 56.4567 31.6519 56.7926 31.6277C58.0354 31.5065 59.1439 31.4581 60.2524 31.3854C60.5883 31.3612 60.8234 31.3369 60.9577 31.4338C61.3608 31.7246 61.7975 31.9912 62.1334 32.1123C62.3349 32.1123 62.5029 32.1365 62.6372 32.2335C62.7716 32.2092 62.8724 32.1608 62.9731 32.1123C63.1075 32.0154 63.1075 31.8942 63.1075 31.7973C63.0739 31.6035 62.9731 31.2158 62.906 31.1188C62.9731 31.1915 62.9395 31.3127 62.8052 31.4096C62.7044 31.4823 62.5701 31.555 62.4021 31.555C62.2677 31.555 62.167 31.5065 61.999 31.4581C61.6295 31.3127 61.1593 31.0704 60.857 30.8038C60.7898 30.7312 60.7226 30.7069 60.5883 30.7069C60.4539 30.6827 60.4203 30.7069 60.3531 30.7069Z" fill="url(#paint17_linear_1_48)"/>
<path d="M49.6715 32.1123C49.4028 32.2577 48.9997 32.2335 48.8318 32.0396C48.7646 31.9669 48.731 31.8942 48.731 31.8458C48.6974 32.1608 48.8654 32.5969 48.9997 32.7423C49.1341 32.9119 49.5708 32.9846 49.9067 32.815C50.6456 32.4031 51.351 32.185 52.09 32.0639C52.2915 31.87 52.4931 31.6519 52.7282 31.4096C52.7618 31.3854 52.7618 31.3612 52.7282 31.3612C52.7282 31.3369 52.6946 31.3369 52.6274 31.3369C51.5862 31.3612 50.6121 31.6035 49.6715 32.1123Z" fill="url(#paint18_linear_1_48)"/>
<path d="M81.1116 24.6492C81.1116 24.6735 81.1457 24.6735 81.1457 24.6977C81.1457 24.6735 81.1457 24.6492 81.1116 24.6492Z" fill="url(#paint19_linear_1_48)"/>
<path d="M81.2459 24.9885C81.2123 25.4973 80.6413 26.0062 79.2641 26.5392C77.6854 27.1692 76.0731 27.3388 74.36 27.3631C70.2285 27.3873 66.3656 26.2242 62.4021 25.5942C62.4021 25.7154 62.4356 25.8608 62.3013 25.9577C60.0844 27.145 58.1026 28.3323 56.759 30.0042C56.7254 30.0527 56.7254 30.0769 56.8262 30.0769C57.1956 30.0527 57.5315 30.0527 57.8674 30.0285C59.0767 28.6473 60.3867 27.8719 62.3685 26.8058C62.5028 26.7331 62.6708 26.6604 62.6036 26.3696C66.6008 26.9996 69.6239 28.0658 74.7967 28.09C76.3418 28.09 78.4915 27.7265 79.6672 27.2177C81.0108 26.6362 81.3803 26.2 81.4139 25.7638C81.4139 25.6185 81.3803 25.4004 81.3467 25.3035C81.3131 25.1581 81.2795 24.9642 81.2123 24.8188C81.2459 24.8431 81.2459 24.9158 81.2459 24.9885Z" fill="url(#paint20_linear_1_48)"/>
<path d="M61.9989 28.5019C61.9654 28.5262 61.8982 28.5746 61.831 28.5988C61.4279 28.8896 61.3271 29.2773 61.3607 29.5681C61.3943 29.6892 61.4615 29.7135 61.5287 29.6892C61.5959 29.6892 61.6966 29.665 61.7638 29.6408C61.7974 29.4712 61.8982 29.3258 62.0997 29.1804C62.2677 29.0835 62.4692 29.035 62.6372 29.0592C62.8051 28.8412 62.8387 28.5746 62.6372 28.4535C62.57 28.405 62.4692 28.3808 62.3348 28.3808C62.2677 28.405 62.1333 28.4292 61.9989 28.5019Z" fill="url(#paint21_linear_1_48)"/>
<path d="M63.5777 29.5196C63.2082 30.0527 62.57 30.3192 61.9654 30.4646C61.9654 30.4646 61.8311 30.4888 61.8646 30.5615C61.8646 30.6585 62.3013 30.8523 62.57 30.9735C62.6036 30.9735 62.6708 30.9492 62.6708 30.9492C62.9731 30.8523 63.477 30.6342 63.7793 30.1738C63.9808 29.8831 64.0816 29.6408 63.9808 29.1077C63.9136 28.7442 63.8129 28.405 63.6785 28.2596C63.9808 28.6473 63.88 29.1319 63.5777 29.5196Z" fill="url(#paint22_linear_1_48)"/>
<path d="M52.5603 27.0723C52.6275 27.1935 52.6275 27.4115 52.4931 27.6538C51.3847 29.5196 49.3021 30.9735 46.7493 31.0462C45.2041 31.0704 44.0621 30.5131 43.5247 29.6892C43.9277 30.3192 44.7339 30.8765 45.4393 31.1915C45.9767 31.4338 46.6821 31.5792 47.4547 31.555C50.1083 31.4823 52.1236 29.9073 52.7954 28.5746C52.9634 28.2112 52.829 27.8235 52.7618 27.5812C52.6947 27.46 52.6611 27.2419 52.5603 27.0723Z" fill="url(#paint23_linear_1_48)"/>
<path d="M116.582 31.4581C116.616 31.5308 116.616 31.5792 116.616 31.6519C116.616 31.5792 116.582 31.5308 116.582 31.4581ZM16.4513 32.6696C16.4513 31.0704 17.4254 29.4954 19.4743 27.9931C26.6961 22.735 45.5736 19.1973 66.3992 19.1246C94.01 19.0519 116.482 24.9885 116.549 32.3546C116.549 33.9538 115.541 35.5046 113.492 37.0069C106.27 42.265 87.4264 45.8269 66.6007 45.8754C38.99 45.9723 16.5184 40.0358 16.4513 32.6696ZM66.5 18.8823C38.5197 18.8823 16.1154 24.94 16.1154 32.5C16.1154 40.0358 38.7213 46.1177 66.5 46.1177C94.2787 46.1177 116.885 40.0115 116.885 32.5C116.885 24.9885 94.2787 18.8823 66.5 18.8823Z" fill="#4F4C4D"/>
<path d="M16.2833 32.5C16.2833 32.8635 16.3505 33.2027 16.4513 33.5662C16.3841 33.2754 16.3169 32.9604 16.3169 32.6696C16.3169 31.0462 17.3246 29.4227 19.3736 27.9204C26.629 22.6381 45.54 19.0762 66.3992 19.0277C69.2879 19.0277 72.1431 19.0762 74.8974 19.1973C72.1767 19.0762 69.3551 19.0035 66.5 19.0035C38.6541 19.0035 16.2833 25.0127 16.2833 32.5Z" fill="url(#paint24_linear_1_48)"/>
<path d="M116.683 32.3546C116.683 33.9781 115.642 35.5773 113.559 37.0796C106.337 42.3377 87.4264 45.9238 66.5672 45.9965C63.6113 45.9965 60.7225 45.9481 57.901 45.8269C60.6889 45.9481 63.5441 46.0208 66.4664 46.0208C94.1779 46.0208 116.683 39.9146 116.683 32.5C116.683 32.2092 116.649 31.9427 116.582 31.6519C116.683 31.8942 116.683 32.1365 116.683 32.3546Z" fill="url(#paint25_linear_1_48)"/>
<path d="M18.9369 32.5C18.9369 39.0908 40.2328 44.4458 66.4664 44.4458C92.7336 44.4458 113.996 39.0908 113.996 32.5C114.029 25.9092 92.7671 20.5785 66.5 20.5785C40.2328 20.5785 18.9369 25.9092 18.9369 32.5ZM20.6164 32.5C20.6164 26.4665 41.1397 21.5962 66.5 21.5962C91.8266 21.5962 112.384 26.4665 112.384 32.5C112.384 38.5335 91.8602 43.4038 66.5 43.4038C41.1733 43.4038 20.6164 38.5335 20.6164 32.5Z" fill="url(#paint26_linear_1_48)"/>
<path d="M93.4054 28.4535C93.2039 28.4535 93.1367 28.4777 93.0359 28.5988C92.7336 29.0108 89.1731 32.8392 88.5349 33.5904C88.4341 33.7115 88.2998 33.6873 88.2662 33.5662C88.199 33.13 87.6616 32.6212 86.8218 32.3788C86.1836 32.185 85.5454 32.1608 84.9072 32.2092C83.7316 32.3304 82.6903 32.7665 81.7834 33.2754C80.4062 34.0265 79.197 35.02 77.6854 35.7469C76.8457 36.1346 75.7036 36.4981 74.9311 35.965C74.2257 35.5046 74.3264 34.4627 75.3677 33.6631C75.4685 33.5904 75.6029 33.6388 75.6029 33.7358C75.5021 34.0992 75.6365 34.4627 76.0059 34.705C76.4762 34.9958 77.148 35.0442 77.719 34.8504C78.3908 34.6081 78.7939 34.1477 78.8947 33.6146C79.0626 32.7908 78.1893 32.0881 77.1144 32.0154C76.2411 31.9669 75.3677 32.185 74.5616 32.6938C74.1585 32.9362 73.9234 33.13 73.5539 33.4935C73.4531 33.5904 73.3188 33.5904 73.3523 33.4692C73.3859 32.4273 72.7813 31.8458 71.6057 31.8215C70.6652 31.7973 69.6911 32.1608 68.9185 32.6212C68.0788 33.1058 67.3398 33.76 66.5336 34.3658C66.4329 34.4385 66.3321 34.4385 66.3321 34.2931C66.2985 33.5904 66.0634 32.9362 65.6267 32.4515C65.4588 32.2819 65.1229 32.2092 64.8541 32.3062C64.7198 32.3546 64.2831 32.5 63.9472 32.6938C63.7793 32.7908 63.7121 32.9362 63.7793 33.1058C64.2159 34.1477 64.1152 35.3108 63.5441 36.3042C63.0067 37.225 61.9654 38.0246 60.7562 38.3154C59.95 38.5092 59.1103 38.4123 58.6065 37.9035C57.9011 37.2008 58.1698 35.965 59.2447 34.9231C60.1852 34.0265 61.5288 33.445 62.8723 33.0815C63.0403 33.0331 63.0739 32.9604 63.0067 32.8635C62.9395 32.6938 62.8052 32.4758 62.7716 32.3788C62.6372 32.1365 62.3013 32.1123 61.8647 32.1365C60.8906 32.2092 60.0172 32.4515 59.1103 32.7908C56.8262 33.6631 55.6841 35.3835 55.1803 36.3042C54.9452 36.7404 54.7436 37.0069 54.4749 37.2492C54.1054 37.5885 53.6688 37.8792 52.829 38.3881C52.7618 38.4365 52.6947 38.5335 52.7618 38.6304C52.8626 38.7515 53.2657 39.1877 53.4 39.2362C53.5344 39.2846 53.7023 39.2119 53.7695 39.1877C54.3406 38.8969 55.0459 38.4608 55.3818 38.1458C55.4826 38.0488 55.617 38.0973 55.6841 38.2427C55.9865 39.0665 56.8262 39.7208 57.9682 40.0115C60.0508 40.5204 62.2341 39.7935 63.88 38.5092C64.9213 37.6854 65.2908 37.1765 65.6939 36.8131C66.3657 36.2073 67.7093 34.8504 69.288 33.9781C69.859 33.6631 70.5644 33.4208 70.9003 33.5662C71.169 33.6873 71.2698 34.0023 70.8331 34.5838C69.2208 36.7162 66.8359 39.2362 66.3993 39.8419C66.3321 39.9388 66.3993 40.0358 66.5336 40.0358H68.9857C69.12 40.0358 69.1872 39.9873 69.2208 39.9146C70.4636 38.5092 71.6393 37.1765 72.8821 35.7954C72.9493 35.7227 73.0164 35.7712 73.0164 35.8196C73.05 36.1346 73.1508 36.5708 73.4195 36.8615C73.8898 37.3946 74.5616 37.6127 75.3006 37.6369C75.9052 37.6369 76.2075 37.5885 76.8457 37.3946C77.3831 37.2492 77.7862 37.0796 78.1221 36.91C78.3236 36.8131 78.3572 36.9827 78.3236 37.0069C78.0213 38.1215 78.3908 39.4542 79.9359 39.9873C81.7834 40.6415 83.7988 39.7208 84.9744 38.8969C85.0752 38.8242 85.2095 38.8242 85.2095 38.9938C85.2431 39.3088 85.4447 39.6965 85.7806 39.9631C86.7547 40.6658 88.7365 40.3992 90.6847 39.2846C91.9611 38.5819 93.2711 37.5885 94.4803 36.5223C94.5139 36.4738 94.5475 36.4254 94.4803 36.3527C94.3124 36.2073 94.0436 36.0619 93.8421 35.9408C93.7749 35.8923 93.6406 35.9165 93.5734 35.9408C92.3306 36.7888 91.2557 37.7338 89.6434 38.5335C89.1059 38.8 88.2326 39.0181 87.8631 38.6546C87.7288 38.5092 87.7288 38.3154 87.8631 38.0488C88.3334 37.2008 95.7231 29.1077 96.0926 28.6231C96.1598 28.5504 96.0926 28.4777 95.9582 28.4777C95.1857 28.4535 94.178 28.4535 93.4054 28.4535ZM81.7162 38.4123C81.3467 38.2669 81.1788 37.8792 81.1788 37.5885C81.2123 36.7162 81.7498 35.8196 82.7239 34.9473C83.9331 33.8812 85.2767 33.3238 86.15 33.6146C87.057 33.9296 86.7547 34.6808 86.3516 35.2865C86.318 35.335 86.318 35.3835 86.3516 35.4077C86.3516 35.4804 86.4859 35.5288 86.5867 35.5531C86.6203 35.5531 86.6539 35.5773 86.6203 35.65C86.318 36.1346 86.0157 36.4254 85.6126 36.8373C85.2431 37.225 84.84 37.54 84.3362 37.8308C83.7652 38.17 83.0262 38.5335 82.3208 38.5335C82.1193 38.5335 81.8841 38.485 81.7162 38.4123Z" fill="url(#paint27_linear_1_48)"/>
<path d="M54.1726 23.5346C53.4672 23.5346 52.7618 23.5588 52.0564 23.6073C47.5218 23.8738 43.2223 25.7154 43.1887 28.5262C43.1887 29.9558 44.5995 31.0946 46.7492 31.0462C49.3021 30.9735 51.3846 29.5196 52.4931 27.6538C52.8962 26.9512 52.1236 26.6604 51.7877 27.0723C51.1495 27.7992 50.209 28.3565 49.2349 28.72C48.0257 29.1319 46.7493 29.035 46.3798 28.3323C45.8423 27.3388 46.9844 25.8608 49.5708 25.1581C53.2992 24.1646 57.2293 24.8188 60.9913 25.3277C61.0585 25.3277 61.26 25.4004 61.0585 25.4731C60.3867 25.7396 59.7149 25.9577 58.6736 26.5877C57.9346 27.0481 56.9605 27.6538 56.2216 28.3081C55.4826 28.9623 54.9451 29.5438 54.2398 30.1981C54.139 30.295 54.0382 30.295 54.0382 30.295C52.3251 30.5131 50.6793 30.6342 49.1341 31.4096C48.8318 31.555 48.6975 31.8458 48.8654 32.0638C49.0334 32.2577 49.4364 32.2819 49.7051 32.1365C50.6457 31.6277 51.6198 31.3854 52.7618 31.3612C52.7954 31.3612 52.829 31.3612 52.8626 31.3854V31.4338C51.1831 33.1058 50.78 33.4935 49.5036 34.5354C48.8654 35.0685 48.2272 35.5288 47.5218 35.9892C44.6667 37.9035 41.5764 37.8792 40.468 36.6677C39.7962 35.9408 39.8969 35.1896 40.3336 34.5596C40.871 33.7842 41.9459 33.2269 42.8528 32.8877C43.1887 32.7665 43.2895 32.4515 42.9536 32.185C42.7521 31.9912 42.2146 31.9669 41.8451 32.0154C40.6695 32.1608 39.2923 32.815 38.4526 33.5904C37.5457 34.4627 37.0754 35.5046 37.2098 36.6677C37.4785 38.8 39.8969 40.0115 42.6513 40.0115C44.8346 39.9873 46.9172 39.5269 49.3693 37.7096C51.6869 36.0135 53.8031 33.4935 55.7513 31.1431C55.8185 31.0704 55.8521 31.0219 56.1544 30.9977C57.3972 30.8765 59.211 30.7554 60.3867 30.7069C60.6554 30.7069 60.689 30.7069 60.7898 30.8038C61.0921 31.0704 61.5623 31.3127 61.9318 31.4581C62.0998 31.5308 62.2005 31.555 62.3349 31.555C62.5028 31.555 62.6372 31.4823 62.738 31.4096C62.8723 31.3127 62.9059 31.1915 62.8387 31.0946C62.7716 30.9977 61.9654 30.6827 61.9318 30.5615C61.8982 30.4888 62.0326 30.4646 62.0326 30.4646C62.6372 30.3192 63.2418 30.0527 63.6449 29.5196C64.0144 29.0108 64.0816 28.3081 63.4098 27.9446C62.8052 27.6054 61.8982 27.6538 61.1928 28.1385C60.4875 28.5988 60.2523 29.2531 60.3531 29.8346C60.3531 29.9315 60.3531 29.98 60.1851 29.98C59.1103 30.0527 58.069 30.0527 56.8934 30.1012C56.8262 30.1012 56.7926 30.0769 56.8262 30.0285C58.1698 28.3565 60.1516 27.1692 62.3685 25.9819C62.5028 25.9092 62.4693 25.7638 62.4693 25.6185C66.4664 26.2485 70.2957 27.4115 74.4272 27.3873C76.1403 27.3873 77.7862 27.1935 79.3313 26.5635C80.7085 26.0304 81.2795 25.5215 81.3131 25.0127C81.3467 24.6492 81.0108 24.4312 80.5069 24.5038C76.3418 25.2065 72.3446 25.1823 68.1795 24.8188C63.4098 24.3827 58.8751 23.5346 54.1726 23.5346ZM61.3608 29.5681C61.2936 29.2531 61.428 28.8169 61.9318 28.5262C62.1669 28.3808 62.5028 28.3323 62.6708 28.4535C62.9059 28.5988 62.7716 28.9381 62.57 29.1562C62.3349 29.4227 61.8982 29.6408 61.5287 29.6892H61.4952C61.4616 29.7135 61.3944 29.6892 61.3608 29.5681Z" fill="url(#paint28_linear_1_48)"/>
<rect x="0.5" y="0.5" width="132" height="64" stroke="#4CA9E3"/>
<defs>
<radialGradient id="paint0_radial_1_48" cx="0" cy="0" r="1" gradientUnits="userSpaceOnUse" gradientTransform="translate(66.0633 169.26) scale(217.546 153.025)">
<stop stop-color="#00050D"/>
<stop offset="0.7" stop-color="#051125"/>
<stop offset="0.904" stop-color="#173E7E"/>
<stop offset="0.955" stop-color="#4CA9E3"/>
<stop offset="1" stop-color="#4CA9E3"/>
</radialGradient>
<linearGradient id="paint1_linear_1_48" x1="66.413" y1="46.4341" x2="66.413" y2="18.7335" gradientUnits="userSpaceOnUse">
<stop stop-color="#08142E"/>
<stop offset="0.809" stop-color="#17326E"/>
<stop offset="1" stop-color="#0D69A9"/>
</linearGradient>
<linearGradient id="paint2_linear_1_48" x1="67.0193" y1="46.4483" x2="67.0193" y2="18.7451" gradientUnits="userSpaceOnUse">
<stop stop-color="#08142E"/>
<stop offset="0.809" stop-color="#17326E"/>
<stop offset="1" stop-color="#0D69A9"/>
</linearGradient>
<linearGradient id="paint3_linear_1_48" x1="75.1008" y1="41.6757" x2="75.1008" y2="22.4826" gradientUnits="userSpaceOnUse">
<stop stop-color="#08142E"/>
<stop offset="0.809" stop-color="#17326E"/>
<stop offset="1" stop-color="#0D69A9"/>
</linearGradient>
<linearGradient id="paint4_linear_1_48" x1="86.4692" y1="41.7542" x2="86.4692" y2="22.3052" gradientUnits="userSpaceOnUse">
<stop stop-color="#08142E"/>
<stop offset="0.809" stop-color="#17326E"/>
<stop offset="1" stop-color="#0D69A9"/>
</linearGradient>
<linearGradient id="paint5_linear_1_48" x1="29035.2" y1="40.9924" x2="29035.2" y2="23.1761" gradientUnits="userSpaceOnUse">
<stop stop-color="#08142E"/>
<stop offset="0.809" stop-color="#17326E"/>
<stop offset="1" stop-color="#0D69A9"/>
</linearGradient>
<linearGradient id="paint6_linear_1_48" x1="73.271" y1="41.251" x2="73.271" y2="22.8347" gradientUnits="userSpaceOnUse">
<stop stop-color="#08142E"/>
<stop offset="0.809" stop-color="#17326E"/>
<stop offset="1" stop-color="#0D69A9"/>
</linearGradient>
<linearGradient id="paint7_linear_1_48" x1="83.9405" y1="41.7515" x2="83.9405" y2="22.3338" gradientUnits="userSpaceOnUse">
<stop stop-color="#08142E"/>
<stop offset="0.809" stop-color="#17326E"/>
<stop offset="1" stop-color="#0D69A9"/>
</linearGradient>
<linearGradient id="paint8_linear_1_48" x1="60.6537" y1="41.7331" x2="60.6537" y2="22.3195" gradientUnits="userSpaceOnUse">
<stop stop-color="#08142E"/>
<stop offset="0.809" stop-color="#17326E"/>
<stop offset="1" stop-color="#0D69A9"/>
</linearGradient>
<linearGradient id="paint9_linear_1_48" x1="31443.3" y1="41.73" x2="31443.3" y2="22.4492" gradientUnits="userSpaceOnUse">
<stop stop-color="#08142E"/>
<stop offset="0.809" stop-color="#17326E"/>
<stop offset="1" stop-color="#0D69A9"/>
</linearGradient>
<linearGradient id="paint10_linear_1_48" x1="86.5269" y1="41.753" x2="86.5269" y2="22.3309" gradientUnits="userSpaceOnUse">
<stop stop-color="#08142E"/>
<stop offset="0.809" stop-color="#17326E"/>
<stop offset="1" stop-color="#0D69A9"/>
</linearGradient>
<linearGradient id="paint11_linear_1_48" x1="77.4076" y1="41.7583" x2="77.4076" y2="22.3238" gradientUnits="userSpaceOnUse">
<stop stop-color="#08142E"/>
<stop offset="0.809" stop-color="#17326E"/>
<stop offset="1" stop-color="#0D69A9"/>
</linearGradient>
<linearGradient id="paint12_linear_1_48" x1="92.1001" y1="41.7353" x2="92.1001" y2="22.3179" gradientUnits="userSpaceOnUse">
<stop stop-color="#08142E"/>
<stop offset="0.809" stop-color="#17326E"/>
<stop offset="1" stop-color="#0D69A9"/>
</linearGradient>
<linearGradient id="paint13_linear_1_48" x1="66.0708" y1="41.5375" x2="66.0708" y2="22.5683" gradientUnits="userSpaceOnUse">
<stop stop-color="#08142E"/>
<stop offset="0.809" stop-color="#17326E"/>
<stop offset="1" stop-color="#0D69A9"/>
</linearGradient>
<linearGradient id="paint14_linear_1_48" x1="61.8907" y1="41.7446" x2="61.8907" y2="22.4578" gradientUnits="userSpaceOnUse">
<stop stop-color="#08142E"/>
<stop offset="0.809" stop-color="#17326E"/>
<stop offset="1" stop-color="#0D69A9"/>
</linearGradient>
<linearGradient id="paint15_linear_1_48" x1="41.5892" y1="41.7303" x2="41.5892" y2="22.3138" gradientUnits="userSpaceOnUse">
<stop stop-color="#08142E"/>
<stop offset="0.809" stop-color="#17326E"/>
<stop offset="1" stop-color="#0D69A9"/>
</linearGradient>
<linearGradient id="paint16_linear_1_48" x1="53.623" y1="41.7532" x2="53.623" y2="22.3409" gradientUnits="userSpaceOnUse">
<stop stop-color="#08142E"/>
<stop offset="0.809" stop-color="#17326E"/>
<stop offset="1" stop-color="#0D69A9"/>
</linearGradient>
<linearGradient id="paint17_linear_1_48" x1="50.133" y1="41.739" x2="50.133" y2="22.3218" gradientUnits="userSpaceOnUse">
<stop stop-color="#08142E"/>
<stop offset="0.809" stop-color="#17326E"/>
<stop offset="1" stop-color="#0D69A9"/>
</linearGradient>
<linearGradient id="paint18_linear_1_48" x1="50.7667" y1="41.751" x2="50.7667" y2="22.3241" gradientUnits="userSpaceOnUse">
<stop stop-color="#08142E"/>
<stop offset="0.809" stop-color="#17326E"/>
<stop offset="1" stop-color="#0D69A9"/>
</linearGradient>
<linearGradient id="paint19_linear_1_48" x1="81.1284" y1="41.3921" x2="81.1284" y2="22.3877" gradientUnits="userSpaceOnUse">
<stop stop-color="#08142E"/>
<stop offset="0.809" stop-color="#17326E"/>
<stop offset="1" stop-color="#0D69A9"/>
</linearGradient>
<linearGradient id="paint20_linear_1_48" x1="69.0883" y1="41.7423" x2="69.0883" y2="22.3273" gradientUnits="userSpaceOnUse">
<stop stop-color="#08142E"/>
<stop offset="0.809" stop-color="#17326E"/>
<stop offset="1" stop-color="#0D69A9"/>
</linearGradient>
<linearGradient id="paint21_linear_1_48" x1="62.1034" y1="41.0852" x2="62.1034" y2="22.7424" gradientUnits="userSpaceOnUse">
<stop stop-color="#08142E"/>
<stop offset="0.809" stop-color="#17326E"/>
<stop offset="1" stop-color="#0D69A9"/>
</linearGradient>
<linearGradient id="paint22_linear_1_48" x1="62.9627" y1="41.7429" x2="62.9627" y2="22.3258" gradientUnits="userSpaceOnUse">
<stop stop-color="#08142E"/>
<stop offset="0.809" stop-color="#17326E"/>
<stop offset="1" stop-color="#0D69A9"/>
</linearGradient>
<linearGradient id="paint23_linear_1_48" x1="48.1907" y1="41.7477" x2="48.1907" y2="22.3299" gradientUnits="userSpaceOnUse">
<stop stop-color="#08142E"/>
<stop offset="0.809" stop-color="#17326E"/>
<stop offset="1" stop-color="#0D69A9"/>
</linearGradient>
<linearGradient id="paint24_linear_1_48" x1="55.4251" y1="52.6038" x2="49.166" y2="20.2223" gradientUnits="userSpaceOnUse">
<stop stop-color="#B2B1B1"/>
<stop offset="0.35" stop-color="#DEDDDE"/>
<stop offset="0.65" stop-color="#DEDDDE"/>
<stop offset="1" stop-color="#B2B1B1"/>
</linearGradient>
<linearGradient id="paint25_linear_1_48" x1="86.0555" y1="35.5032" x2="79.8255" y2="3.27182" gradientUnits="userSpaceOnUse">
<stop stop-color="#B2B1B1"/>
<stop offset="0.35" stop-color="#DEDDDE"/>
<stop offset="0.65" stop-color="#DEDDDE"/>
<stop offset="1" stop-color="#B2B1B1"/>
</linearGradient>
<linearGradient id="paint26_linear_1_48" x1="66.504" y1="18.5471" x2="66.504" y2="46.3906" gradientUnits="userSpaceOnUse">
<stop stop-color="white"/>
<stop offset="0.552" stop-color="white"/>
<stop offset="0.691" stop-color="#FAFAFA"/>
<stop offset="0.8" stop-color="#D3D2D2"/>
<stop offset="1" stop-color="#BDBCBC"/>
</linearGradient>
<linearGradient id="paint27_linear_1_48" x1="74.4007" y1="27.4623" x2="74.4007" y2="41.271" gradientUnits="userSpaceOnUse">
<stop stop-color="white"/>
<stop offset="0.552" stop-color="white"/>
<stop offset="0.691" stop-color="#EFEEEE"/>
<stop offset="0.8" stop-color="#E9E9E9"/>
<stop offset="1" stop-color="#D3D2D2"/>
</linearGradient>
<linearGradient id="paint28_linear_1_48" x1="-32188.1" y1="22.1961" x2="-32188.1" y2="41.3512" gradientUnits="userSpaceOnUse">
<stop stop-color="white"/>
<stop offset="0.552" stop-color="white"/>
<stop offset="0.691" stop-color="#EFEEEE"/>
<stop offset="0.8" stop-color="#E9E9E9"/>
<stop offset="1" stop-color="#D3D2D2"/>
</linearGradient>
</defs>
</svg>
